<svg width="62" height="28" viewBox="0 0 62 28" fill="none" xmlns="http://www.w3.org/2000/svg">
<path d="M0.405396 22.8281V1.38669H5.52997V10.2456L15.5728 1.38669H21.5572L14.197 8.11342L22.7265 22.8281H17.0861L10.8609 12.0474H9.96669L5.52997 15.9212V22.8281H0.405396Z" fill="#E6E6E6"/>
<path d="M27.4016 27.0624H23.3776L33.7643 0.0353394H37.6851L27.4016 27.0624Z" fill="#E6E6E6"/>
<path d="M55.8853 15.9813H61.2162C60.8493 18.1635 59.7488 19.9152 57.9145 21.2365C56.1031 22.5579 53.7873 23.2185 50.9671 23.2185C47.2755 23.2185 44.3865 22.2075 42.3 20.1855C40.2364 18.1434 39.2046 15.4508 39.2046 12.1074C39.2046 8.76407 40.2479 6.08139 42.3344 4.05936C44.4209 2.01732 47.2985 0.9963 50.9671 0.9963C53.6497 0.9963 55.8853 1.60691 57.6737 2.82813C59.4622 4.02933 60.5627 5.63094 60.9755 7.63294H55.6101C55.0369 5.87118 53.4892 4.99029 50.9671 4.99029C48.8576 4.99029 47.2411 5.66097 46.1176 7.00231C45.017 8.32363 44.4668 10.0253 44.4668 12.1074C44.4668 14.1895 45.017 15.9012 46.1176 17.2425C47.2411 18.5639 48.8576 19.2245 50.9671 19.2245C52.274 19.2245 53.3517 18.9442 54.2 18.3837C55.0713 17.8031 55.6331 17.0023 55.8853 15.9813Z" fill="#E6E6E6"/>
</svg>
